M48
; DRILL file {KiCad (6.0.10)} date Sun Oct  8 01:53:08 2023
; FORMAT={-:-/ absolute / metric / decimal}
; #@! TF.CreationDate,2023-10-08T01:53:08-06:00
; #@! TF.GenerationSoftware,Kicad,Pcbnew,(6.0.10)
; #@! TF.FileFunction,Plated,1,2,PTH
FMAT,2
METRIC
; #@! TA.AperFunction,Plated,PTH,ViaDrill
T1C0.400
; #@! TA.AperFunction,Plated,PTH,ComponentDrill
T2C0.600
; #@! TA.AperFunction,Plated,PTH,ComponentDrill
T3C0.700
; #@! TA.AperFunction,Plated,PTH,ComponentDrill
T4C0.900
%
G90
G05
T1
X65.0Y-98.8
X65.1Y-102.609
X65.8Y-100.9
X67.9Y-60.4
X67.9Y-61.9
X69.4Y-97.2
X69.8Y-61.9
X70.9Y-104.5
X71.8Y-82.7
X71.9Y-93.7
X73.1Y-81.4
X73.2Y-96.2
X74.0Y-98.5
X74.3Y-96.2
X74.6Y-58.5
X74.6Y-61.9
X74.6Y-64.9
X75.5Y-57.3
X75.7Y-82.3
X75.896Y-58.52
X76.6Y-60.0
X76.6Y-64.9
X78.4Y-60.0
X78.676Y-93.199
X78.767Y-90.75
X78.767Y-100.91
X78.8Y-78.0
X78.8Y-98.4
X78.9Y-57.8
X79.6Y-64.9
X80.0Y-83.0
X81.5Y-84.5
X81.6Y-69.3
X82.2Y-87.8
X82.3Y-76.4
X82.5Y-100.9
X82.6Y-61.5
X83.8Y-78.9
X84.6Y-79.7
X85.6Y-76.3
X85.8Y-91.5
X87.1Y-59.6
X87.5Y-57.8
X88.0Y-83.6
X88.8Y-84.4
X88.9Y-57.9
X89.559Y-85.05
X90.4Y-59.4
X90.4Y-63.6
X91.2Y-80.3
X91.9Y-81.1
X92.2Y-95.8
X92.551Y-81.858
X93.4Y-88.7
X94.1Y-74.0
X95.0Y-76.5
X95.6Y-74.9
X95.6Y-95.8
X95.6Y-106.0
X95.647Y-85.67
X95.647Y-88.21
X95.647Y-90.75
X95.647Y-93.29
X95.647Y-98.37
X95.647Y-100.91
X96.9Y-56.4
X98.9Y-77.5
X99.5Y-67.1
X99.5Y-69.2
X99.5Y-71.2
X100.5Y-66.2
X101.3Y-68.0
X102.3Y-83.1
X104.5Y-60.7
X104.5Y-70.7
X104.5Y-80.6
X105.4Y-65.7
X105.4Y-75.7
X105.4Y-85.6
X108.05Y-108.1
X108.05Y-88.1
X109.0Y-65.5
X109.0Y-75.5
X109.0Y-85.5
T3
X61.65Y-58.3
X65.15Y-58.3
T4
X61.69Y-65.0
X64.23Y-65.0
X66.77Y-65.0
X69.31Y-65.0
X77.09Y-56.6
X79.63Y-56.6
X82.17Y-56.6
X84.71Y-56.6
T2
X62.99Y-97.28G85X62.19Y-97.28
G05
X62.99Y-105.92G85X62.19Y-105.92
G05
X67.32Y-97.28G85X66.22Y-97.28
G05
X67.32Y-105.92G85X66.22Y-105.92
G05
T3
X63.8Y-68.35G85X63.8Y-68.85
G05
X63.8Y-71.85G85X63.8Y-72.35
G05
X63.8Y-75.35G85X63.8Y-75.85
G05
X63.8Y-80.35G85X63.8Y-80.85
G05
X63.8Y-83.85G85X63.8Y-84.35
G05
X63.8Y-87.35G85X63.8Y-87.85
G05
X63.8Y-90.85G85X63.8Y-91.35
G05
T0
M30
